# xmcd
#
# Track frame offsets:
#	150
#	25140
#	55238
#	82948
#	108725
#	134358
#	163254
#	186761
#	219449
#	242705
#	268146
#	292827
#
# Disc length: 4400
#
# Revision: 2
# Processed by: cddbd v1.5.1PL0 Copyright (c) Steve Scherf et al.
# Submitted via: EasyCDDAExtractor 5.0.6
# Normalized: r1:DSETVAR2,TDELIM( - )
#
DISCID=ab112e0c
DTITLE=Various Artist - Ground_0-Promo
DYEAR=2003
DGENRE=Trance
TTITLE0=DJ Danjo and Rob Styles - Aragon
TTITLE1=Annie Lennox - 1000 Beatiful Things (GnD Tech)
TTITLE2=Motorcycle - As The Rush Comes (AVB Mix)
TTITLE3=Tiesto - Nyana
TTITLE4=Hemstock and Jennings - Mirage of Hope 2003
TTITLE5=Darren Tate Vs. Blue Amazon - No Other Love
TTITLE6=Hemstock and Jennings Feat. Adam White - Reverence
TTITLE7=Skin - Faithfulness (Tiesto Mix)
TTITLE8=Lots Tribe - Game Master (Darey 2003 Mix)
TTITLE9=Jose Amnesia - The Eternal (Pulser Mix)
TTITLE10=Poloroid - So Damn Beautiful (Dogzilla Mix)
TTITLE11=M.I.K.E. - Turn out The Lights
EXTD=
EXTT0=
EXTT1=
EXTT2=
EXTT3=
EXTT4=
EXTT5=
EXTT6=
EXTT7=
EXTT8=
EXTT9=
EXTT10=
EXTT11=
PLAYORDER=
